<svg width="324" height="58" viewBox="0 0 324 58" fill="none" xmlns="http://www.w3.org/2000/svg">
<path d="M31 18.5C32.1603 18.5 33.2731 19.0341 34.0936 19.9847C34.9141 20.9353 35.375 22.2246 35.375 23.569C35.375 24.9133 34.9141 26.2026 34.0936 27.1533C33.2731 28.1039 32.1603 28.6379 31 28.6379C29.8397 28.6379 28.7269 28.1039 27.9064 27.1533C27.0859 26.2026 26.625 24.9133 26.625 23.569C26.625 22.2246 27.0859 20.9353 27.9064 19.9847C28.7269 19.0341 29.8397 18.5 31 18.5ZM22.25 22.1207C22.95 22.1207 23.6 22.3379 24.1625 22.729C23.975 24.8 24.5 26.8566 25.575 28.4641C24.95 29.8545 23.7 30.8103 22.25 30.8103C21.2554 30.8103 20.3016 30.3526 19.5983 29.5378C18.8951 28.723 18.5 27.6178 18.5 26.4655C18.5 25.3132 18.8951 24.2081 19.5983 23.3933C20.3016 22.5784 21.2554 22.1207 22.25 22.1207ZM39.75 22.1207C40.7446 22.1207 41.6984 22.5784 42.4017 23.3933C43.1049 24.2081 43.5 25.3132 43.5 26.4655C43.5 27.6178 43.1049 28.723 42.4017 29.5378C41.6984 30.3526 40.7446 30.8103 39.75 30.8103C38.3 30.8103 37.05 29.8545 36.425 28.4641C37.5 26.8566 38.025 24.8 37.8375 22.729C38.4 22.3379 39.05 22.1207 39.75 22.1207ZM22.875 36.9655C22.875 33.9676 26.5125 31.5345 31 31.5345C35.4875 31.5345 39.125 33.9676 39.125 36.9655V39.5H22.875V36.9655ZM16 39.5V37.3276C16 35.3145 18.3625 33.62 21.5625 33.1276C20.825 34.1124 20.375 35.4738 20.375 36.9655V39.5H16ZM46 39.5H41.625V36.9655C41.625 35.4738 41.175 34.1124 40.4375 33.1276C43.6375 33.62 46 35.3145 46 37.3276V39.5Z" fill="white"/>
<path d="M112.727 31.6H111.455C111.455 26.569 107.471 22.5 102.545 22.5H101.273V20.849C102.036 20.407 102.545 19.562 102.545 18.6C102.545 17.17 101.413 16 100 16C98.5873 16 97.4545 17.17 97.4545 18.6C97.4545 19.562 97.9636 20.407 98.7273 20.849V22.5H97.4545C92.5291 22.5 88.5455 26.569 88.5455 31.6H87.2727C86.5727 31.6 86 32.185 86 32.9V36.8C86 37.515 86.5727 38.1 87.2727 38.1H88.5455V39.4C88.5455 40.843 89.6909 42 91.0909 42H108.909C110.322 42 111.455 40.843 111.455 39.4V38.1H112.727C113.427 38.1 114 37.515 114 36.8V32.9C114 32.185 113.427 31.6 112.727 31.6ZM97.1873 34.85C96.6909 33.706 95.5836 32.9 94.2727 32.9C92.9618 32.9 91.8545 33.706 91.3582 34.85C91.1927 34.447 91.0909 34.018 91.0909 33.55C91.0909 31.756 92.5164 30.3 94.2727 30.3C96.0291 30.3 97.4545 31.756 97.4545 33.55C97.4545 34.018 97.3527 34.447 97.1873 34.85ZM108.642 34.85C108.145 33.706 107 32.9 105.727 32.9C104.455 32.9 103.309 33.706 102.813 34.85C102.647 34.447 102.545 34.018 102.545 33.55C102.545 31.756 103.971 30.3 105.727 30.3C107.484 30.3 108.909 31.756 108.909 33.55C108.909 34.018 108.807 34.447 108.642 34.85Z" fill="#45CFDD"/>
<path d="M164.4 40.5V32.3824H169.6V40.5H176.1V29.6765H180L167 17.5L154 29.6765H157.9V40.5H164.4Z" fill="white"/>
<path d="M243.4 16H222.6C221.157 16 220 17.157 220 18.6V34.2C220 35.643 221.17 36.8 222.6 36.8H227.8V40.7C227.8 41.415 228.385 42 229.1 42H229.75C230.075 42 230.4 41.87 230.66 41.623L235.47 36.8H243.4C244.83 36.8 246 35.63 246 34.2V18.6C246 17.157 244.83 16 243.4 16ZM229.204 32.9H226.5V30.183L234.521 22.136L237.212 24.84L229.204 32.9ZM239.292 22.76L237.979 24.073L235.288 21.434L236.601 20.108C236.861 19.835 237.303 19.822 237.615 20.108L239.292 21.733C239.565 22.006 239.578 22.448 239.292 22.76Z" fill="white"/>
<path d="M297 18C298.459 18 299.858 18.5795 300.889 19.6109C301.921 20.6424 302.5 22.0413 302.5 23.5C302.5 24.9587 301.921 26.3576 300.889 27.3891C299.858 28.4205 298.459 29 297 29C295.541 29 294.142 28.4205 293.111 27.3891C292.079 26.3576 291.5 24.9587 291.5 23.5C291.5 22.0413 292.079 20.6424 293.111 19.6109C294.142 18.5795 295.541 18 297 18ZM297 31.75C303.077 31.75 308 34.2113 308 37.25V40H286V37.25C286 34.2113 290.922 31.75 297 31.75Z" fill="white"/>
</svg>
