<svg width="360" height="145" viewBox="0 0 360 145" fill="none" xmlns="http://www.w3.org/2000/svg">
<g filter="url(#filter0_d_19_302)">
<path d="M339.5 37.5C339.5 57.9409 323.152 74.5 303 74.5C282.848 74.5 266.5 57.9409 266.5 37.5C266.5 17.0591 282.848 0.5 303 0.5C323.152 0.5 339.5 17.0591 339.5 37.5Z" fill="#9681EB" stroke="black"/>
<mask id="path-2-inside-1_19_302" fill="white">
<path d="M315.523 30.2158C316.058 29.6913 316.058 28.8172 315.523 28.3196L312.317 25.1728C311.81 24.6483 310.919 24.6483 310.384 25.1728L307.863 27.6338L313.002 32.6767M291.254 43.9461V48.9891H296.393L311.549 34.1022L306.41 29.0592L291.254 43.9461Z"/>
</mask>
<path d="M315.523 30.2158C316.058 29.6913 316.058 28.8172 315.523 28.3196L312.317 25.1728C311.81 24.6483 310.919 24.6483 310.384 25.1728L307.863 27.6338L313.002 32.6767M291.254 43.9461V48.9891H296.393L311.549 34.1022L306.41 29.0592L291.254 43.9461Z" fill="#0B0B0B"/>
<path d="M315.523 28.3196L314.823 29.0333L314.832 29.0425L314.842 29.0515L315.523 28.3196ZM312.317 25.1728L311.598 25.8678L311.607 25.8773L311.616 25.8865L312.317 25.1728ZM310.384 25.1728L311.083 25.8884L311.085 25.8865L310.384 25.1728ZM307.863 27.6338L307.164 26.9181L306.433 27.6318L307.163 28.3475L307.863 27.6338ZM291.254 43.9461L290.553 43.2327L290.254 43.5267V43.9461H291.254ZM291.254 48.9891H290.254V49.9891H291.254V48.9891ZM296.393 48.9891V49.9891H296.802L297.094 49.7025L296.393 48.9891ZM311.549 34.1022L312.25 34.8156L312.977 34.1019L312.25 33.3885L311.549 34.1022ZM306.41 29.0592L307.111 28.3455L306.41 27.6578L305.71 28.3458L306.41 29.0592ZM316.224 30.9295C317.147 30.0237 317.175 28.4908 316.205 27.5877L314.842 29.0515C314.89 29.0962 314.924 29.1663 314.924 29.2576C314.924 29.3492 314.889 29.4373 314.823 29.502L316.224 30.9295ZM316.224 27.6059L313.017 24.459L311.616 25.8865L314.823 29.0333L316.224 27.6059ZM313.036 24.4777C312.125 23.5363 310.597 23.5632 309.684 24.459L311.085 25.8865C311.152 25.8207 311.251 25.7794 311.361 25.7794C311.471 25.7794 311.551 25.8199 311.598 25.8678L313.036 24.4777ZM309.686 24.4571L307.164 26.9181L308.561 28.3494L311.083 25.8884L309.686 24.4571ZM307.163 28.3475L312.301 33.3905L313.702 31.963L308.563 26.92L307.163 28.3475ZM290.254 43.9461V48.9891H292.254V43.9461H290.254ZM291.254 49.9891H296.393V47.9891H291.254V49.9891ZM297.094 49.7025L312.25 34.8156L310.848 33.3888L295.692 48.2757L297.094 49.7025ZM312.25 33.3885L307.111 28.3455L305.71 29.773L310.849 34.816L312.25 33.3885ZM305.71 28.3458L290.553 43.2327L291.955 44.6596L307.111 29.7727L305.71 28.3458Z" fill="black" mask="url(#path-2-inside-1_19_302)"/>
</g>
<g filter="url(#filter1_d_19_302)">
<rect y="87" width="360" height="58" rx="8" fill="#6527BE" shape-rendering="crispEdges"/>
<path d="M47 105.5C48.1603 105.5 49.2731 106.034 50.0936 106.985C50.9141 107.935 51.375 109.225 51.375 110.569C51.375 111.913 50.9141 113.203 50.0936 114.153C49.2731 115.104 48.1603 115.638 47 115.638C45.8397 115.638 44.7269 115.104 43.9064 114.153C43.0859 113.203 42.625 111.913 42.625 110.569C42.625 109.225 43.0859 107.935 43.9064 106.985C44.7269 106.034 45.8397 105.5 47 105.5ZM38.25 109.121C38.95 109.121 39.6 109.338 40.1625 109.729C39.975 111.8 40.5 113.857 41.575 115.464C40.95 116.854 39.7 117.81 38.25 117.81C37.2554 117.81 36.3016 117.353 35.5983 116.538C34.8951 115.723 34.5 114.618 34.5 113.466C34.5 112.313 34.8951 111.208 35.5983 110.393C36.3016 109.578 37.2554 109.121 38.25 109.121ZM55.75 109.121C56.7446 109.121 57.6984 109.578 58.4017 110.393C59.1049 111.208 59.5 112.313 59.5 113.466C59.5 114.618 59.1049 115.723 58.4017 116.538C57.6984 117.353 56.7446 117.81 55.75 117.81C54.3 117.81 53.05 116.854 52.425 115.464C53.5 113.857 54.025 111.8 53.8375 109.729C54.4 109.338 55.05 109.121 55.75 109.121ZM38.875 123.966C38.875 120.968 42.5125 118.534 47 118.534C51.4875 118.534 55.125 120.968 55.125 123.966V126.5H38.875V123.966ZM32 126.5V124.328C32 122.314 34.3625 120.62 37.5625 120.128C36.825 121.112 36.375 122.474 36.375 123.966V126.5H32ZM62 126.5H57.625V123.966C57.625 122.474 57.175 121.112 56.4375 120.128C59.6375 120.62 62 122.314 62 124.328V126.5Z" fill="#45CFDD"/>
<path d="M128.727 118.6H127.455C127.455 113.569 123.471 109.5 118.545 109.5H117.273V107.849C118.036 107.407 118.545 106.562 118.545 105.6C118.545 104.17 117.413 103 116 103C114.587 103 113.455 104.17 113.455 105.6C113.455 106.562 113.964 107.407 114.727 107.849V109.5H113.455C108.529 109.5 104.545 113.569 104.545 118.6H103.273C102.573 118.6 102 119.185 102 119.9V123.8C102 124.515 102.573 125.1 103.273 125.1H104.545V126.4C104.545 127.843 105.691 129 107.091 129H124.909C126.322 129 127.455 127.843 127.455 126.4V125.1H128.727C129.427 125.1 130 124.515 130 123.8V119.9C130 119.185 129.427 118.6 128.727 118.6ZM113.187 121.85C112.691 120.706 111.584 119.9 110.273 119.9C108.962 119.9 107.855 120.706 107.358 121.85C107.193 121.447 107.091 121.018 107.091 120.55C107.091 118.756 108.516 117.3 110.273 117.3C112.029 117.3 113.455 118.756 113.455 120.55C113.455 121.018 113.353 121.447 113.187 121.85ZM124.642 121.85C124.145 120.706 123 119.9 121.727 119.9C120.455 119.9 119.309 120.706 118.813 121.85C118.647 121.447 118.545 121.018 118.545 120.55C118.545 118.756 119.971 117.3 121.727 117.3C123.484 117.3 124.909 118.756 124.909 120.55C124.909 121.018 124.807 121.447 124.642 121.85Z" fill="white"/>
<path d="M180.4 127.5V119.382H185.6V127.5H192.1V116.676H196L183 104.5L170 116.676H173.9V127.5H180.4Z" fill="white"/>
<path d="M259.4 103H238.6C237.157 103 236 104.157 236 105.6V121.2C236 122.643 237.17 123.8 238.6 123.8H243.8V127.7C243.8 128.415 244.385 129 245.1 129H245.75C246.075 129 246.4 128.87 246.66 128.623L251.47 123.8H259.4C260.83 123.8 262 122.63 262 121.2V105.6C262 104.157 260.83 103 259.4 103ZM245.204 119.9H242.5V117.183L250.521 109.136L253.212 111.84L245.204 119.9ZM255.292 109.76L253.979 111.073L251.288 108.434L252.601 107.108C252.861 106.835 253.303 106.822 253.615 107.108L255.292 108.733C255.565 109.006 255.578 109.448 255.292 109.76Z" fill="white"/>
<path d="M313 105C314.459 105 315.858 105.579 316.889 106.611C317.921 107.642 318.5 109.041 318.5 110.5C318.5 111.959 317.921 113.358 316.889 114.389C315.858 115.421 314.459 116 313 116C311.541 116 310.142 115.421 309.111 114.389C308.079 113.358 307.5 111.959 307.5 110.5C307.5 109.041 308.079 107.642 309.111 106.611C310.142 105.579 311.541 105 313 105ZM313 118.75C319.077 118.75 324 121.211 324 124.25V127H302V124.25C302 121.211 306.922 118.75 313 118.75Z" fill="white"/>
</g>
<defs>
<filter id="filter0_d_19_302" x="266" y="0" width="82" height="83" filterUnits="userSpaceOnUse" color-interpolation-filters="sRGB">
<feFlood flood-opacity="0" result="BackgroundImageFix"/>
<feColorMatrix in="SourceAlpha" type="matrix" values="0 0 0 0 0 0 0 0 0 0 0 0 0 0 0 0 0 0 127 0" result="hardAlpha"/>
<feOffset dx="4" dy="4"/>
<feGaussianBlur stdDeviation="2"/>
<feComposite in2="hardAlpha" operator="out"/>
<feColorMatrix type="matrix" values="0 0 0 0 0 0 0 0 0 0 0 0 0 0 0 0 0 0 0.2 0"/>
<feBlend mode="normal" in2="BackgroundImageFix" result="effect1_dropShadow_19_302"/>
<feBlend mode="normal" in="SourceGraphic" in2="effect1_dropShadow_19_302" result="shape"/>
</filter>
<filter id="filter1_d_19_302" x="-4" y="79" width="368" height="66" filterUnits="userSpaceOnUse" color-interpolation-filters="sRGB">
<feFlood flood-opacity="0" result="BackgroundImageFix"/>
<feColorMatrix in="SourceAlpha" type="matrix" values="0 0 0 0 0 0 0 0 0 0 0 0 0 0 0 0 0 0 127 0" result="hardAlpha"/>
<feOffset dy="-4"/>
<feGaussianBlur stdDeviation="2"/>
<feComposite in2="hardAlpha" operator="out"/>
<feColorMatrix type="matrix" values="0 0 0 0 0 0 0 0 0 0 0 0 0 0 0 0 0 0 0.25 0"/>
<feBlend mode="normal" in2="BackgroundImageFix" result="effect1_dropShadow_19_302"/>
<feBlend mode="normal" in="SourceGraphic" in2="effect1_dropShadow_19_302" result="shape"/>
</filter>
</defs>
</svg>
