<svg width="20" height="20" viewBox="0 0 20 20" fill="none" xmlns="http://www.w3.org/2000/svg">
<path d="M3.63636 8V20H0V8H3.63636ZM7.27273 20C6.79052 20 6.32805 19.7893 5.98708 19.4142C5.6461 19.0391 5.45455 18.5304 5.45455 18V8C5.45455 7.45 5.65455 6.95 5.99091 6.59L11.9727 0L12.9364 1.06C13.1818 1.33 13.3364 1.7 13.3364 2.11L13.3091 2.43L12.4455 7H18.1818C19.1909 7 20 7.9 20 9V11C20 11.26 19.9545 11.5 19.8727 11.73L17.1273 18.78C16.8545 19.5 16.2091 20 15.4545 20H7.27273ZM7.27273 18H15.4818L18.1818 11V9H10.1909L11.2182 3.68L7.27273 8.03V18Z" fill="#6C6C6C"/>
</svg>
