<svg width="25" height="25" viewBox="0 0 25 25" fill="none" xmlns="http://www.w3.org/2000/svg">
<mask id="path-1-inside-1_68_20" fill="white">
<path d="M24.5937 5.50902C25.1353 4.97754 25.1353 4.09174 24.5937 3.58751L21.3442 0.398612C20.8304 -0.132871 19.9277 -0.132871 19.3861 0.398612L16.8309 2.89249L22.0385 8.00291M0 19.423V24.5334H5.20759L20.5665 9.44745L15.3589 4.33704L0 19.423Z"/>
</mask>
<path d="M24.5937 5.50902C25.1353 4.97754 25.1353 4.09174 24.5937 3.58751L21.3442 0.398612C20.8304 -0.132871 19.9277 -0.132871 19.3861 0.398612L16.8309 2.89249L22.0385 8.00291M0 19.423V24.5334H5.20759L20.5665 9.44745L15.3589 4.33704L0 19.423Z" fill="#0B0B0B"/>
<path d="M24.5937 3.58751L23.8839 4.31079L23.8935 4.32012L23.9032 4.3292L24.5937 3.58751ZM21.3442 0.398612L20.6156 1.10296L20.6249 1.11255L20.6344 1.12189L21.3442 0.398612ZM19.3861 0.398612L20.0939 1.12382L20.0959 1.12189L19.3861 0.398612ZM16.8309 2.89249L16.1231 2.16729L15.3821 2.89052L16.1212 3.61577L16.8309 2.89249ZM0 19.423L-0.710107 18.7L-1.01337 18.9979V19.423H0ZM0 24.5334H-1.01337V25.5468H0V24.5334ZM5.20759 24.5334V25.5468H5.62203L5.9177 25.2563L5.20759 24.5334ZM20.5665 9.44745L21.2766 10.1704L22.013 9.44712L21.2763 8.72417L20.5665 9.44745ZM15.3589 4.33704L16.0687 3.61376L15.3586 2.91691L14.6488 3.61408L15.3589 4.33704ZM25.3035 6.2323C26.2389 5.31437 26.2673 3.76105 25.2843 2.84582L23.9032 4.3292C23.9519 4.37454 23.9866 4.44555 23.9866 4.53805C23.9866 4.63091 23.9508 4.72017 23.8839 4.78575L25.3035 6.2323ZM25.3035 2.86423L22.054 -0.324665L20.6344 1.12189L23.8839 4.31079L25.3035 2.86423ZM22.0728 -0.305737C21.1505 -1.25975 19.6014 -1.23243 18.6764 -0.324665L20.0959 1.12189C20.1639 1.05522 20.2641 1.01337 20.3756 1.01337C20.4871 1.01337 20.5687 1.0544 20.6156 1.10296L22.0728 -0.305737ZM18.6783 -0.326596L16.1231 2.16729L17.5388 3.6177L20.0939 1.12382L18.6783 -0.326596ZM16.1212 3.61577L21.3288 8.72618L22.7483 7.27963L17.5407 2.16922L16.1212 3.61577ZM-1.01337 19.423V24.5334H1.01337V19.423H-1.01337ZM0 25.5468H5.20759V23.52H0V25.5468ZM5.9177 25.2563L21.2766 10.1704L19.8564 8.72449L4.49749 23.8104L5.9177 25.2563ZM21.2763 8.72417L16.0687 3.61376L14.6492 5.06031L19.8567 10.1707L21.2763 8.72417ZM14.6488 3.61408L-0.710107 18.7L0.710107 20.1459L16.069 5.05999L14.6488 3.61408Z" fill="black" mask="url(#path-1-inside-1_68_20)"/>
</svg>
